<?xml version="1.0" encoding="utf-8"?>
<!-- Generator: Adobe Illustrator 16.2.1, SVG Export Plug-In . SVG Version: 6.00 Build 0)  -->
<!DOCTYPE svg PUBLIC "-//W3C//DTD SVG 1.1//EN" "http://www.w3.org/Graphics/SVG/1.1/DTD/svg11.dtd">
<svg version="1.1" id="Layer_1" xmlns="http://www.w3.org/2000/svg" xmlns:xlink="http://www.w3.org/1999/xlink" x="0px" y="0px"
	 preserveAspectRatio="xMidYMid meet" viewBox="153 375 306 42" enable-background="new 153 375 306 42" xml:space="preserve">
<g>
	<g>
		<path fill="#19B5BC" d="M188.368,387.592h4.535l5.695,17.699l5.864-17.768h3.547l5.865,17.768l5.694-17.699h4.399l-8.287,24.04
			h-3.649l-5.865-17.151l-5.865,17.151h-3.615L188.368,387.592z"/>
		<path fill="#19B5BC" d="M228.268,387.592h17.698v3.75h-13.504v6.208h11.969v3.751h-11.969v6.411h13.674v3.751h-17.868V387.592
			L228.268,387.592z"/>
		<path fill="#19B5BC" d="M251.115,387.592h8.9c7.501,0,12.686,5.149,12.686,11.867v0.068c0,6.718-5.183,11.936-12.686,11.936h-8.9
			V387.592z M255.311,391.411v16.232h4.706c5.013,0,8.287-3.377,8.287-8.049v-0.068c0-4.671-3.273-8.116-8.287-8.116
			L255.311,391.411L255.311,391.411z"/>
		<path fill="#19B5BC" d="M277.783,387.592h8.901c7.502,0,12.686,5.149,12.686,11.867v0.068c0,6.718-5.183,11.936-12.686,11.936
			h-8.901V387.592L277.783,387.592z M281.979,391.411v16.232h4.706c5.012,0,8.286-3.377,8.286-8.049v-0.068
			c0-4.671-3.273-8.116-8.286-8.116L281.979,391.411L281.979,391.411z"/>
		<path fill="#19B5BC" d="M304.69,387.592h4.194v23.871h-4.194V387.592z"/>
		<path fill="#19B5BC" d="M315.262,387.592h3.887l12.788,16.503v-16.503h4.126v23.871h-3.511l-13.163-16.982v16.982h-4.127V387.592
			L315.262,387.592z"/>
		<path fill="#19B5BC" d="M341.146,399.595v-0.068c0-6.683,5.114-12.344,12.31-12.344c4.161,0,6.717,1.16,9.173,3.24l-2.661,3.172
			c-1.84-1.569-3.647-2.558-6.683-2.558c-4.399,0-7.741,3.854-7.741,8.422v0.068c0,4.909,3.24,8.526,8.116,8.526
			c2.252,0,4.297-0.718,5.764-1.809v-4.467h-6.104v-3.649h10.162v10.026c-2.354,2.012-5.729,3.718-9.958,3.718
			C346.057,411.872,341.146,406.552,341.146,399.595z"/>
		<path fill="#19B5BC" d="M367.404,387.592h2.933l6.821,19.88l6.547-19.95h2.217l6.547,19.95l6.82-19.88h2.83l-8.525,24.04h-2.284
			l-6.547-19.367l-6.581,19.367h-2.252L367.404,387.592z"/>
		<path fill="#19B5BC" d="M407.235,387.592h2.694v23.871h-2.694V387.592z"/>
		<path fill="#19B5BC" d="M416.92,387.592h10.264c2.934,0,5.286,0.886,6.787,2.387c1.159,1.159,1.842,2.83,1.842,4.705v0.068
			c0,3.956-2.729,6.274-6.48,6.956l7.332,9.753h-3.309l-6.922-9.275h-6.82v9.275h-2.693V387.592L416.92,387.592z M426.945,399.766
			c3.58,0,6.138-1.843,6.138-4.911v-0.068c0-2.933-2.251-4.706-6.104-4.706h-7.365v9.685H426.945L426.945,399.766L426.945,399.766z"
			/>
		<path fill="#19B5BC" d="M441.576,387.592h17.254v2.456H444.27v8.148h13.025v2.456H444.27v8.354H459v2.456h-17.424V387.592z"/>
	</g>
	<g>
		<path fill="#19B5BC" d="M178.429,386.627c-0.102,0.126-0.322,0.341-0.584,0.588c-1.826,1.742-6.498,6.218-9.067,16.735v-9.273
			h-1.619v9.322c-2.567-10.552-7.253-15.04-9.077-16.784c-0.259-0.248-0.488-0.462-0.588-0.588l-1.252,1.029
			c0.162,0.197,0.396,0.425,0.719,0.731c2.264,2.164,9.135,8.735,10.192,26.982c-0.001,0.016-0.003,0.034-0.004,0.053l0.008,0.001
			c0.001,0.03,0.004,0.059,0.006,0.09l1.052-0.031l0.555,0.031c0-0.017,0.001-0.032,0.003-0.047l0.006-0.002v-0.103
			c1.052-18.241,7.92-24.811,10.183-26.975c0.327-0.306,0.562-0.534,0.722-0.731L178.429,386.627z"/>
		<path fill="#19B5BC" d="M167.934,376.488c-2.308,0-4.178,1.869-4.178,4.176c0,2.31,1.869,4.18,4.178,4.18s4.181-1.871,4.181-4.18
			C172.114,378.357,170.242,376.488,167.934,376.488z M167.932,386.152c-1.874,0-3.391,1.519-3.391,3.396
			c0,1.871,1.517,3.393,3.391,3.393c1.879,0,3.399-1.522,3.399-3.393C171.331,387.672,169.811,386.152,167.932,386.152z
			 M157.178,381.133c-2.31,0-4.178,1.874-4.178,4.179c0,2.308,1.868,4.178,4.178,4.178c2.309,0,4.178-1.871,4.178-4.178
			C161.356,383.007,159.486,381.133,157.178,381.133z M178.692,381.133c-2.309,0-4.18,1.874-4.18,4.179
			c0,2.308,1.871,4.178,4.18,4.178c2.304,0,4.178-1.871,4.178-4.178C182.871,383.007,180.996,381.133,178.692,381.133z"/>
	</g>
</g>
</svg>
